<svg width="247" height="57" viewBox="0 0 247 57" fill="none" xmlns="http://www.w3.org/2000/svg">
<path d="M42.3694 41.9347V19.0833H47.6V37.343H56.8423V41.9308H42.3694V41.9347Z" fill="white"/>
<path d="M57.928 33.7686V33.638C57.928 32.3714 58.1621 31.1957 58.6262 30.1151C59.0903 29.0345 59.7401 28.1122 60.5796 27.3443C61.4191 26.5803 62.4038 25.9945 63.5339 25.5907C64.668 25.187 65.8909 24.9851 67.2026 24.9851C68.4699 24.9851 69.6524 25.1989 70.7542 25.6264C71.852 26.0539 72.7924 26.6555 73.5753 27.4274C74.3583 28.2032 74.9556 29.1057 75.3754 30.1309C75.7951 31.1601 76.005 32.2407 76.005 33.3768L75.9364 34.9522H62.9931C63.0375 35.6726 63.2998 36.298 63.7761 36.8205C64.2523 37.343 64.8456 37.7072 65.56 37.9011C66.2743 38.0991 66.9362 38.198 67.5456 38.198C68.1793 38.198 68.8493 38.0991 69.5515 37.9011C70.2538 37.7032 70.9802 37.2678 71.7269 36.5909L74.6812 39.3103C72.6632 41.3211 70.2094 42.3266 67.3075 42.3266C65.9474 42.3266 64.6842 42.1247 63.5178 41.7209C62.3514 41.3172 61.3545 40.7393 60.5271 39.9832C59.6998 39.2311 59.0621 38.3207 58.606 37.2639C58.158 36.203 57.928 35.0393 57.928 33.7686ZM63.0617 31.7697H70.9116C70.9116 31.4214 70.7865 31.0334 70.5363 30.6059C70.2861 30.1784 69.8502 29.8103 69.2286 29.4897C68.6071 29.173 67.9331 29.0147 67.2066 29.0147C66.121 29.0147 65.1725 29.2839 64.3694 29.8182C63.5622 30.3566 63.1263 31.0057 63.0617 31.7697Z" fill="white"/>
<path d="M79.6413 41.9347V29.838H77.365V25.4126H79.6413V19.0833H84.5692V25.4126H88.3387V29.838H84.5692V41.9347H79.6413Z" fill="white"/>
<path d="M88.9846 39.4408L91.9066 36.4246C92.3587 36.9511 93.0125 37.3825 93.86 37.719C94.7076 38.0594 95.6197 38.2256 96.5964 38.2256C97.4561 38.2256 98.1018 38.1069 98.5337 37.8654C98.9655 37.624 99.1794 37.2994 99.1794 36.8838C99.1794 36.7531 99.127 36.6067 99.0261 36.4404C98.9252 36.2742 98.6991 36.1238 98.348 35.9813C97.9969 35.8388 97.3511 35.6527 96.4108 35.4231C95.4704 35.1936 94.7399 34.9917 94.2192 34.8175C91.5918 33.9427 90.2761 32.4148 90.2761 30.2298C90.2761 29.1809 90.5465 28.2704 91.0914 27.4906C91.6362 26.7148 92.4111 26.0934 93.4201 25.6223C94.4291 25.1513 95.5995 24.9177 96.9354 24.9177C99.3368 24.9177 101.294 25.6263 102.812 27.0473L100.398 30.2615C99.47 29.454 98.2673 29.0502 96.7982 29.0502C96.2534 29.0502 95.8336 29.1531 95.543 29.3629C95.2484 29.5727 95.1031 29.8181 95.1031 30.0992C95.1031 30.4277 95.2282 30.6692 95.4785 30.8196C95.7287 30.974 96.326 31.1679 97.2785 31.4094C98.231 31.6508 99.0664 31.8883 99.7929 32.1298C102.602 33.0481 104.006 34.6117 104.006 36.8165C104.006 37.6042 103.853 38.3404 103.546 39.0292C103.24 39.7179 102.784 40.3117 102.17 40.8144C101.557 41.3171 100.766 41.705 99.7929 41.9781C98.8202 42.2513 97.7103 42.3898 96.4632 42.3898C95.6036 42.3898 94.6793 42.2908 93.6946 42.0929C92.7098 41.895 91.8098 41.5586 90.9945 41.0756C90.1712 40.6006 89.5053 40.0544 88.9846 39.4408Z" fill="white"/>
<path d="M104.987 37.2439L108.793 34.7185C109.358 35.6368 110.161 36.3691 111.206 36.9154C112.248 37.4616 113.426 37.7347 114.742 37.7347C115.331 37.7347 115.912 37.6516 116.49 37.4893C117.067 37.327 117.511 37.0578 117.813 36.6858C118.12 36.3137 118.273 35.9099 118.273 35.4745C118.273 35.0589 118.144 34.6789 117.882 34.3266C117.62 33.9783 117.208 33.6656 116.643 33.3924C116.078 33.1193 115.299 32.8185 114.314 32.4899C113.329 32.1614 112.667 31.9318 112.328 31.8012C110.718 31.2312 109.515 30.5978 108.708 29.9012C107.905 29.2006 107.348 28.4604 107.045 27.6726C106.739 26.8849 106.585 26.0576 106.585 25.1828C106.585 24.4624 106.727 23.7183 107.009 22.9543C107.292 22.1903 107.764 21.4937 108.418 20.8722C109.075 20.2508 109.919 19.7362 110.948 19.3324C111.977 18.9287 113.152 18.7268 114.463 18.7268C116.276 18.7268 117.846 19.0831 119.169 19.7916C120.493 20.5001 121.555 21.3908 122.346 22.4635L118.847 25.0206C117.894 23.841 116.477 23.2512 114.601 23.2512C113.741 23.2512 113.051 23.4253 112.526 23.7776C112.006 24.126 111.743 24.5772 111.743 25.1235C111.743 25.6697 111.925 26.1131 112.288 26.4495C112.651 26.7899 113.459 27.166 114.718 27.5816C115.973 27.9972 116.885 28.3139 117.454 28.5316C119.581 29.3193 121.123 30.2416 122.075 31.3024C123.028 32.3633 123.504 33.7012 123.504 35.3201C123.504 36.3256 123.322 37.2558 122.959 38.1068C122.596 38.9578 122.051 39.702 121.329 40.3354C120.602 40.9687 119.682 41.4556 118.56 41.792C117.438 42.1324 116.155 42.2987 114.706 42.2987C113.188 42.2987 111.755 42.081 110.407 41.6416C109.059 41.2062 107.937 40.5887 107.045 39.7891C106.145 38.9895 105.463 38.1424 104.987 37.2439Z" fill="white"/>
<path d="M128.634 24.0033C127.863 24.0033 127.189 23.7302 126.612 23.184C126.034 22.6377 125.744 21.9925 125.744 21.2483C125.744 20.4844 126.034 19.8273 126.612 19.281C127.189 18.7348 127.863 18.4617 128.634 18.4617C129.425 18.4617 130.107 18.7348 130.672 19.281C131.237 19.8273 131.519 20.4844 131.519 21.2483C131.519 21.5967 131.422 21.9925 131.233 22.4279C131.039 22.8633 130.7 23.2354 130.212 23.5442C129.723 23.849 129.199 24.0033 128.634 24.0033ZM126.119 41.9346V25.4125H131.18V41.9346H126.119Z" fill="white"/>
<path d="M133.832 33.6734C133.832 32.5137 134.046 31.4132 134.478 30.3603C134.91 29.3114 135.507 28.393 136.278 27.6053C137.049 26.8176 137.953 26.208 138.994 25.7687C140.035 25.3332 141.145 25.1116 142.324 25.1116C142.937 25.1116 143.603 25.1868 144.33 25.3412C145.056 25.4955 145.706 25.7726 146.283 26.1764C146.86 26.5801 147.239 27.0432 147.421 27.5697V25.4124H152.482V39.1795C152.482 41.3447 152.24 43.0309 151.752 44.2422C151.263 45.4534 150.513 46.4549 149.492 47.2426C148.721 47.8324 147.788 48.2955 146.687 48.636C145.589 48.9764 144.451 49.1426 143.272 49.1426C139.942 49.1426 137.146 48.3668 134.881 46.8151L137.295 43.2764C139.014 44.3253 140.77 44.8518 142.562 44.8518C143.22 44.8518 143.869 44.7766 144.515 44.6222C145.161 44.4678 145.678 44.262 146.061 44.0007C147.058 43.3437 147.554 42.1443 147.554 40.3947V40.0345C147.191 40.6243 146.533 41.1072 145.585 41.4753C144.632 41.8474 143.547 42.0335 142.324 42.0335C141.145 42.0335 140.035 41.8197 138.994 41.3962C137.953 40.9687 137.045 40.3749 136.278 39.6109C135.507 38.847 134.906 37.9484 134.478 36.9232C134.046 35.8901 133.832 34.8095 133.832 33.6734ZM138.893 33.6734C138.893 34.5047 139.135 35.2568 139.624 35.9337C140.112 36.6105 140.693 37.0816 141.375 37.3428C142.053 37.6041 142.679 37.7347 143.244 37.7347C143.809 37.7347 144.443 37.6041 145.145 37.3428C145.847 37.0816 146.452 36.6105 146.961 35.9337C147.469 35.2568 147.724 34.5007 147.724 33.6734C147.724 32.8422 147.469 32.0822 146.961 31.3934C146.452 30.7047 145.847 30.2257 145.145 29.9526C144.443 29.6795 143.809 29.5409 143.244 29.5409C142.021 29.5409 140.992 29.9407 140.152 30.7364C139.313 31.5359 138.893 32.5137 138.893 33.6734Z" fill="white"/>
<path d="M155.78 41.9345V25.4125H160.841V27.4787C161.204 26.7583 161.837 26.1725 162.742 25.7252C163.646 25.2779 164.679 25.0522 165.833 25.0522C167.916 25.0522 169.53 25.6579 170.676 26.8731C171.818 28.0843 172.392 29.7627 172.392 31.9041V41.9345H167.33V32.49C167.33 31.7893 167.177 31.1916 166.87 30.685C166.564 30.1822 166.164 29.8379 165.664 29.6518C165.163 29.4658 164.679 29.3747 164.203 29.3747C163.25 29.3747 162.455 29.6875 161.809 30.3089C161.163 30.9304 160.841 31.7141 160.841 32.6522V41.9306H155.78V41.9345Z" fill="white"/>
<path d="M195.865 12.9753C195.865 12.9753 192.821 17.5828 188.689 25.2897C185.637 30.9778 184.172 31.5043 184.172 31.5043C184.172 31.5043 191.259 31.5043 193.229 31.5043C193.766 31.152 195.142 29.157 195.59 28.4564C196.038 27.7558 204.469 12.9753 204.469 12.9753H195.865Z" fill="url(#paint0_linear_120_7)"/>
<path d="M185.936 23.5598L177.477 23.6192L179.418 27.6646C180.621 29.5527 180.911 30.0198 182.643 31.1519C183.248 31.5477 183.474 31.5081 183.474 31.5081C183.474 31.5081 184.746 31.0965 187.534 26.0734C186.618 24.8661 185.936 23.5598 185.936 23.5598Z" fill="url(#paint1_linear_120_7)"/>
<defs>
<linearGradient id="paint0_linear_120_7" x1="194.323" y1="30.7723" x2="194.323" y2="17.0841" gradientUnits="userSpaceOnUse">
<stop stop-color="#9271FD"/>
<stop offset="1" stop-color="#25DFFE"/>
</linearGradient>
<linearGradient id="paint1_linear_120_7" x1="182.505" y1="30.7722" x2="182.505" y2="17.084" gradientUnits="userSpaceOnUse">
<stop stop-color="#9271FD"/>
<stop offset="1" stop-color="#25DFFE"/>
</linearGradient>
</defs>
</svg>
